HIERARCHY
ROOT Hips
{
  OFFSET -33.9132 29.2015 117.021
  CHANNELS 6 Xposition Yposition Zposition Zrotation Xrotation Yrotation
  JOINT LeftUpLeg
  {
    OFFSET 8.64259 1.95398 -2.38835
    CHANNELS 3 Zrotation Xrotation Yrotation
    JOINT LeftLeg
    {
      OFFSET 43.7702 0 0
      CHANNELS 3 Zrotation Xrotation Yrotation
      JOINT LeftFoot
      {
        OFFSET 40.6238 0 0
        CHANNELS 3 Zrotation Xrotation Yrotation
        JOINT LeftToeBase
        {
          OFFSET 12.7242 0 0
          CHANNELS 3 Zrotation Xrotation Yrotation
          End Site
          {
            OFFSET 0 0 0
          }
        }
      }
    }
  }
  JOINT RightUpLeg
  {
    OFFSET -8.2249 1.95398 -2.59336
    CHANNELS 3 Zrotation Xrotation Yrotation
    JOINT RightLeg
    {
      OFFSET 43.5653 0 0
      CHANNELS 3 Zrotation Xrotation Yrotation
      JOINT RightFoot
      {
        OFFSET 40.6238 0 0
        CHANNELS 3 Zrotation Xrotation Yrotation
        JOINT RightToeBase
        {
          OFFSET 12.7242 0 0
          CHANNELS 3 Zrotation Xrotation Yrotation
          End Site
          {
            OFFSET 0 0 0
          }
        }
      }
    }
  }
  JOINT Spine
  {
    OFFSET 0.165834 0.87714 6.61349
    CHANNELS 3 Zrotation Xrotation Yrotation
    JOINT Spine1
    {
      OFFSET 7.38963 1.71661e-005 0
      CHANNELS 3 Zrotation Xrotation Yrotation
      JOINT Spine2
      {
        OFFSET 11.9445 1.14441e-005 0
        CHANNELS 3 Zrotation Xrotation Yrotation
        JOINT Spine3
        {
          OFFSET 14.7254 4.19617e-005 0
          CHANNELS 3 Zrotation Xrotation Yrotation
          JOINT Spine4
          {
            OFFSET 10.9679 0 0
            CHANNELS 3 Zrotation Xrotation Yrotation
            JOINT RightShoulder
            {
              OFFSET 2.46616 -1.6653 3.69651
              CHANNELS 3 Zrotation Xrotation Yrotation
              JOINT RightArm
              {
                OFFSET 13.0012 0 0
                CHANNELS 3 Zrotation Xrotation Yrotation
                JOINT RightForeArm
                {
                  OFFSET 28.7848 1.62311e-005 0
                  CHANNELS 3 Zrotation Xrotation Yrotation
                  JOINT RightHand
                  {
                    OFFSET 26.5688 1.62095e-005 0
                    CHANNELS 3 Zrotation Xrotation Yrotation
                    End Site
                    {
                      OFFSET 0 0 0
                    }
                  }
                }
              }
            }
            JOINT LeftShoulder
            {
              OFFSET 2.38034 -1.29275 -3.7523
              CHANNELS 3 Zrotation Xrotation Yrotation
              JOINT LeftArm
              {
                OFFSET 16.3182 6.07031e-005 0
                CHANNELS 3 Zrotation Xrotation Yrotation
                JOINT LeftForeArm
                {
                  OFFSET 27.0901 0 0
                  CHANNELS 3 Zrotation Xrotation Yrotation
                  JOINT LeftHand
                  {
                    OFFSET 24.5451 1.51738e-005 0
                    CHANNELS 3 Zrotation Xrotation Yrotation
                    End Site
                    {
                      OFFSET 0 0 0
                    }
                  }
                }
              }
            }
            JOINT Neck
            {
              OFFSET 5.0226 -0.0266342 0
              CHANNELS 3 Zrotation Xrotation Yrotation
              JOINT Head
              {
                OFFSET 6.69364 2.86102e-005 0
                CHANNELS 3 Zrotation Xrotation Yrotation
                End Site
                {
                  OFFSET 0 0 0
                }
              }
            }
          }
        }
      }
    }
  }
}
MOTION
Frames:	15
Frame Time:	0.0416667
9.67323 100.953 19.0411 -152.245 -81.6549 -152.853 -174.957 -1.73729 88.1404 -13.5844 4.98533 -0.0831016 69.497 5.29404 -1.20226 15.8165 -10.6619 7.47003 172.967 -3.13813 89.7712 -14.2404 -0.792249 0.764161 69.2977 -5.78438 2.75117 23.7771 1.45438 2.89512 0.189869 7.66727 -90.1073 11.5397 0.327593 -0.247429 -0.131236 0.31638 -0.261608 -22.6667 0.386804 -0.137545 -2.654 0.386799 -0.137539 91.1413 -28.1387 -105.16 52.5354 2.51176 -8.41412 -5.6972 -47.3471 -5.70068 -14.784 1.35057 -16.1479 -88.6014 -51.3563 81.0781 -22.1021 -4.28691 -15.4583 -13.2728 30.763 -0.0250027 6.80614 -0.43192 -12.0009 6.64433 -0.554583 -0.607426 -4.5085 -0.442767 1.18822 
9.65904 100.957 19.0322 -151.871 -81.7536 -152.367 -174.934 -1.5389 88.2397 -13.7206 4.6846 -0.0516604 69.6488 5.29216 -1.52506 15.448 -10.7967 7.3186 173.097 -2.97374 89.9492 -14.2505 -1.13961 0.729866 69.0361 -5.74874 2.25989 23.7914 1.35522 3.2034 0.205804 7.64641 -90.1401 11.5815 0.343888 -0.314709 -0.0894352 0.329699 -0.329543 -22.6248 0.422566 -0.19681 -2.61216 0.422564 -0.19681 91.2797 -27.8531 -104.981 52.6808 2.51715 -8.20713 -5.67098 -47.0223 -5.6829 -15.1552 1.46408 -16.6423 -88.8868 -51.659 80.7146 -21.8726 -4.33115 -15.2851 -13.2307 30.744 -0.0249977 6.4258 -0.407726 -12.1211 6.73326 -0.674208 -0.714105 -4.98814 -0.551534 1.63489 
9.70785 100.95 19.061 -153.281 -81.8462 -153.97 -174.997 -1.72462 88.0453 -13.4649 5.19027 -0.132527 70.1959 5.77033 -1.70648 14.5126 -12.5588 9.19245 172.977 -2.86408 89.747 -14.5629 -1.41165 0.727649 69.1028 -5.75519 1.73818 22.7135 1.57828 4.01172 0.199706 7.6577 -90.1695 11.5589 0.317965 -0.370455 -0.112081 0.301358 -0.384095 -22.6473 0.414597 -0.257769 -2.63466 0.414602 -0.25777 91.5902 -27.3573 -104.521 52.8046 2.59891 -7.8153 -5.57533 -45.8069 -5.62043 -16.9357 1.94371 -18.8002 -89.4774 -52.5622 80.0241 -21.0529 -4.08028 -15.5585 -13.5317 29.4454 -0.0246715 6.33291 -0.490327 -13.0704 6.25048 -0.955684 -0.29033 -3.87596 -0.898251 1.65574 
9.72157 100.955 19.1468 -153.345 -81.9399 -154.076 -174.953 -1.72654 88.0183 -13.4374 5.23519 -0.20054 70.3165 5.86744 -1.64177 14.4979 -12.4532 9.01074 172.825 -2.8986 89.6075 -14.4668 -1.13455 0.817282 69.2944 -5.79842 2.27203 22.6486 1.6664 3.81242 0.171478 7.65738 -90.1625 11.5594 0.265133 -0.350985 -0.111529 0.249431 -0.362326 -22.6467 0.358357 -0.25508 -2.63403 0.358365 -0.255074 91.4866 -27.4306 -104.709 52.6451 2.66101 -7.85044 -5.60138 -46.1539 -5.63788 -16.9189 1.94055 -18.7696 -89.3656 -52.5163 80.1784 -21.1631 -4.20564 -15.4861 -13.456 29.6912 -0.0247316 6.55318 -0.459532 -12.4594 6.42246 -0.825073 -0.124518 -3.86299 -0.797664 1.27703 
9.71727 100.952 19.1777 -151.089 -81.7047 -151.603 -174.809 -1.72861 88.2445 -13.6756 4.78355 -0.219216 70.5118 5.78968 -2.08072 14.7941 -12.729 9.73291 172.984 -3.60885 89.7558 -13.678 -1.35269 0.849837 69.02 -5.7506 2.11201 22.7509 1.52671 4.12484 0.241906 7.66434 -90.1534 11.5458 0.409512 -0.347768 -0.125156 0.393806 -0.36547 -22.6607 0.495098 -0.208614 -2.64801 0.495094 -0.208624 91.3654 -27.9249 -104.779 52.3426 2.7809 -7.91185 -5.6361 -46.4277 -5.65191 -16.2007 1.73751 -17.9374 -89.5347 -51.827 79.7954 -21.6668 -4.41532 -15.2174 -13.1637 30.857 -0.0250271 6.27851 -0.487601 -13.2084 6.17197 -1.00376 -0.878068 -3.4732 -0.826532 1.70845 
9.78755 100.944 19.224 -154.723 -82.0226 -155.548 -174.999 -1.65584 87.9042 -13.7053 5.81653 -0.236991 70.2387 5.88808 -1.43859 15.0823 -12.486 9.64335 172.862 -2.89463 89.4698 -14.3887 -1.8424 0.721793 68.8184 -5.57471 1.75255 23.5003 1.35306 3.63698 0.167809 7.64839 -90.123 11.5774 0.276246 -0.273674 -0.0935506 0.26393 -0.285577 -22.6288 0.345724 -0.178003 -2.61619 0.345731 -0.177998 91.3307 -28.0322 -104.811 52.2694 2.98846 -7.41887 -5.59893 -46.0652 -5.63342 -17.5223 2.11795 -19.4648 -89.6326 -52.3328 79.7531 -21.1286 -4.55784 -15.329 -13.2836 29.6693 -0.0247262 5.74878 -0.430523 -13.2109 5.92479 -1.01078 -0.909509 -3.23137 -0.826381 1.82517 
9.7628 100.965 19.3059 -153.177 -81.8423 -153.911 -174.922 -1.89045 88.0061 -13.4929 5.29047 -0.239397 70.2663 5.88812 -1.58818 15.144 -12.4359 9.62732 172.825 -3.09895 89.5512 -14.3989 -1.30795 0.774027 69.2006 -5.71542 2.06777 22.609 1.56826 4.18791 0.19632 7.64195 -90.1345 11.5903 0.327623 -0.301786 -0.0806015 0.314028 -0.315924 -22.616 0.403163 -0.189378 -2.60331 0.403179 -0.189372 91.466 -27.9965 -104.545 52.4738 2.93126 -7.3126 -5.59023 -46.0036 -5.63029 -17.4027 2.12206 -19.5836 -89.3605 -52.2927 80.1421 -21.3337 -4.66715 -15.0896 -13.0843 31.14 -0.0251015 6.74822 -0.490616 -12.7212 5.89839 -0.971355 -0.935578 -3.3913 -0.787031 2.0896 
9.78681 100.98 19.3747 -153.161 -81.8404 -153.937 -174.958 -1.96707 87.9308 -13.4565 5.23463 -0.223804 70.2396 5.88576 -1.54616 14.9695 -12.1601 9.02018 172.812 -3.15354 89.4858 -14.3521 -1.65758 0.742231 69.0682 -5.62554 1.97464 22.8366 1.63 3.66623 0.214858 7.66906 -90.1119 11.5362 0.375158 -0.261347 -0.134719 0.363292 -0.27761 -22.6702 0.436354 -0.13652 -2.65759 0.436364 -0.136508 91.6286 -28.4591 -104.047 52.1963 2.94556 -7.63802 -5.59494 -46.0628 -5.63319 -17.0834 2.14412 -20.0305 -89.3001 -51.9968 80.1726 -21.5738 -4.5692 -15.5658 -13.136 30.7782 -0.0250066 6.61054 -0.443384 -12.3702 6.2676 -1.13081 -1.51673 -3.6705 -0.835612 2.4841 
9.80607 100.967 19.4384 -151.416 -81.8486 -152.048 -174.892 -1.79103 88.0623 -13.6171 5.38716 -0.250773 70.3216 5.99621 -1.20613 14.7002 -12.2528 8.89883 172.894 -3.08033 89.6484 -14.2867 -1.90251 0.763037 68.9361 -5.67121 1.48563 22.8586 1.4916 4.08952 0.23178 7.64372 -90.1154 11.5869 0.40706 -0.272076 -0.0839905 0.394689 -0.289735 -22.6196 0.470013 -0.137151 -2.60693 0.47 -0.137165 91.6397 -28.5832 -103.981 52.0739 2.87398 -8.00504 -5.64114 -46.6487 -5.66346 -15.0207 1.71175 -18.7918 -89.1872 -51.9519 80.3292 -21.7378 -4.99865 -15.5429 -12.9759 30.755 -0.0250006 6.53773 -0.435511 -12.3978 5.93612 -1.11094 -1.65027 -3.60911 -0.794521 2.51407 
9.85645 100.957 19.454 -150.506 -81.6583 -151.138 -174.821 -2.04772 88.0565 -13.4214 4.66294 -0.299335 70.555 6.01587 -1.77367 14.3243 -12.4535 8.84068 172.751 -3.14103 89.4968 -14.3716 -1.75288 0.82366 69.202 -5.72162 2.16615 22.5375 1.6141 4.13562 0.262119 7.64605 -90.1202 11.5824 0.465221 -0.28746 -0.0885389 0.452118 -0.307664 -22.6243 0.530102 -0.134351 -2.61164 0.530104 -0.134356 91.6504 -28.4861 -103.993 52.3403 2.87757 -7.64077 -5.61755 -46.35 -5.64795 -16.6107 1.97648 -19.2919 -89.3535 -52.0328 80.1014 -22.2741 -6.33195 -15.601 -12.3719 32.3332 -0.0254269 6.7187 -0.478541 -12.9031 5.44332 -1.28085 -1.7853 -3.24911 -0.9375 2.87717 
9.86997 100.966 19.5069 -149.44 -81.6933 -149.99 -174.897 -1.86262 88.0443 -13.6357 4.47209 -0.187909 70.4841 5.87204 -1.91108 14.9755 -12.2865 9.22463 172.976 -3.19142 89.6757 -14.1548 -1.60405 0.663191 69.1463 -5.71898 2.20817 22.4759 1.58881 4.30159 0.265975 7.63762 -90.1314 11.5993 0.467547 -0.310278 -0.0715754 0.453434 -0.330564 -22.6073 0.53918 -0.155416 -2.59466 0.539177 -0.155424 91.6332 -28.4533 -104.039 52.3654 2.72145 -8.04873 -5.68817 -47.235 -5.69459 -15.2071 1.53951 -17.2574 -89.2604 -52.2531 80.2806 -21.9623 -5.97282 -15.6697 -12.5654 31.4659 -0.0251885 6.29475 -0.425347 -12.7432 5.37516 -1.15687 -1.55565 -3.23789 -0.857931 2.56636 
9.91936 100.963 19.5691 -149.125 -81.8217 -149.642 -174.926 -1.69327 88.0306 -13.7749 4.5516 -0.166199 70.6102 5.9672 -1.89936 14.8101 -12.4938 9.38322 172.889 -3.00965 89.6425 -14.1619 -1.76458 0.791957 68.8856 -5.60583 1.98324 23.04 1.37741 4.2117 0.259233 7.62601 -90.1532 11.6224 0.443913 -0.351326 -0.0485343 0.428023 -0.370525 -22.5842 0.528973 -0.20167 -2.5715 0.528976 -0.20167 91.742 -28.185 -103.91 52.3364 2.71881 -8.09567 -5.695 -47.3214 -5.69917 -14.6509 1.54173 -17.7891 -89.3311 -52.6272 80.25 -21.3469 -5.39691 -15.71 -12.8733 31.049 -0.0250775 6.55344 -0.501301 -13.251 5.27436 -1.13067 -1.29945 -3.31611 -0.882555 2.49817 
9.93558 100.928 19.6759 -150.396 -82.035 -151.125 -175.003 -1.81945 87.8279 -13.4634 4.72733 -0.21402 70.6139 6.17543 -1.6454 14.8139 -12.52 9.42796 172.661 -3.23425 89.3196 -14.057 -1.5119 0.914066 69.3049 -5.67156 2.43581 22.8816 1.5927 3.72591 0.216742 7.60587 -90.1146 11.6626 0.377409 -0.267844 -0.00831166 0.365253 -0.2842 -22.5438 0.440452 -0.142038 -2.53117 0.440453 -0.142033 91.6341 -28.3897 -104.06 52.6679 2.60148 -7.98746 -5.67374 -47.0567 -5.685 -15.8869 1.49289 -16.3976 -89.246 -52.3679 80.3235 -21.9823 -6.17348 -15.4933 -12.4386 32.0788 -0.0253559 6.4262 -0.348041 -11.7124 4.98723 -1.07588 -1.48175 -3.20091 -0.796654 2.55407 
9.96484 100.944 19.7089 -150.485 -82.0349 -151.255 -175.044 -1.89635 87.747 -13.3481 4.62547 -0.199947 70.4964 6.10853 -1.68294 14.9685 -12.0586 8.86001 172.739 -2.9791 89.3512 -14.3211 -1.45032 0.74524 69.2538 -5.62524 2.43074 22.9358 1.51511 3.9038 0.202713 7.61132 -90.1171 11.6517 0.348374 -0.269634 -0.0192356 0.336174 -0.284714 -22.5547 0.413309 -0.152466 -2.54203 0.413304 -0.152472 91.5265 -28.4207 -104.269 52.6287 2.69154 -7.78606 -5.49604 -44.7627 -5.56992 -16.2588 1.76628 -18.0854 -89.2609 -52.6933 80.3649 -21.4463 -5.78705 -15.5251 -12.693 31.3248 -0.0251506 6.54105 -0.400868 -12.098 5.05606 -0.955823 -1.02097 -3.39014 -0.763197 1.95407 
9.9653 100.957 19.783 -151.318 -81.9487 -152.241 -175.079 -2.13947 87.6188 -13.2398 4.86231 -0.239103 70.3375 6.08115 -1.55658 15.1633 -12.3141 9.45581 172.557 -3.02149 89.1508 -14.5539 -1.95178 0.799057 69.2986 -5.68917 1.88918 22.9507 1.46862 4.03576 0.188172 7.62733 -90.0959 11.6195 0.329391 -0.225329 -0.0513858 0.319149 -0.239611 -22.5868 0.381876 -0.115914 -2.57417 0.381879 -0.115915 91.4615 -28.5506 -104.356 52.7287 2.76482 -7.45067 -5.37967 -43.1564 -5.49746 -17.7812 2.08191 -19.0171 -89.1143 -52.5121 80.5434 -21.7531 -6.01311 -15.5022 -12.5706 31.3504 -0.0251575 6.27037 -0.391563 -12.3237 5.17515 -0.975605 -1.2281 -3.50271 -0.747443 2.30985 
